<svg xmlns="http://www.w3.org/2000/svg" xmlns:xlink="http://www.w3.org/1999/xlink" preserveAspectRatio="xMidYMid" width="18" height="22" viewBox="0 0 18 22">
  <path fill="#242425" d="M15.061,11.690 C15.090,15.018 17.998,16.125 18.031,16.141 C18.005,16.217 17.566,17.720 16.498,19.271 C15.575,20.612 14.619,21.946 13.110,21.973 C11.627,22.001 11.151,21.100 9.455,21.100 C7.760,21.100 7.231,21.946 5.828,22.001 C4.373,22.056 3.264,20.553 2.334,19.218 C0.431,16.485 -1.021,11.496 0.931,8.130 C1.899,6.457 3.631,5.398 5.511,5.370 C6.940,5.345 8.291,6.328 9.163,6.328 C10.038,6.328 11.679,5.146 13.403,5.320 C14.124,5.349 16.150,5.608 17.451,7.499 C17.347,7.566 15.032,8.903 15.061,11.690 ZM8.989,5.069 C8.821,3.804 9.448,2.489 10.164,1.664 C10.963,0.733 12.312,0.042 13.425,-0.003 C13.567,1.286 13.045,2.580 12.273,3.511 C11.499,4.440 10.231,5.165 8.989,5.069 Z"/>
</svg>
