<svg xmlns="http://www.w3.org/2000/svg" xmlns:xlink="http://www.w3.org/1999/xlink" preserveAspectRatio="xMidYMid" width="42" height="42" viewBox="0 0 42 42">
  <g id="down-arrow">
    <circle id="circle-1" stroke-width="2" stroke="#fff" fill="transparent" cx="21" cy="21" r="20"/>
    <path fill="white" d="M15.633,18.305 C15.633,18.305 20.498,22.890 20.498,22.890 C20.498,22.890 25.427,18.245 25.427,18.245 C25.427,18.245 25.427,18.245 25.427,18.245 C25.594,18.094 25.821,18.000 26.071,18.000 C26.584,18.000 27.000,18.392 27.000,18.875 C27.000,19.111 26.901,19.325 26.740,19.482 C26.740,19.482 26.740,19.483 26.740,19.483 C26.740,19.483 21.169,24.733 21.169,24.733 C21.169,24.733 21.168,24.732 21.168,24.732 C20.999,24.897 20.762,25.000 20.500,25.000 C20.499,25.000 20.499,25.000 20.498,25.000 C20.497,25.000 20.497,25.000 20.496,25.000 C20.233,25.000 19.997,24.897 19.828,24.732 C19.828,24.732 19.827,24.733 19.827,24.733 C19.827,24.733 14.256,19.483 14.256,19.483 C14.256,19.483 14.258,19.480 14.258,19.480 C14.098,19.323 14.000,19.110 14.000,18.875 C14.000,18.392 14.416,18.000 14.929,18.000 C15.210,18.000 15.462,18.118 15.633,18.305 Z" />
  </g>
</svg>
