<svg xmlns="http://www.w3.org/2000/svg" xmlns:xlink="http://www.w3.org/1999/xlink" preserveAspectRatio="xMidYMid" width="18" height="10" viewBox="0 0 18 10">
  <path fill="#444444" d="M4.000,10.000 C4.000,10.000 4.000,8.000 4.000,8.000 C4.000,8.000 18.000,8.000 18.000,8.000 C18.000,8.000 18.000,10.000 18.000,10.000 C18.000,10.000 4.000,10.000 4.000,10.000 ZM4.000,-0.000 C4.000,-0.000 18.000,-0.000 18.000,-0.000 C18.000,-0.000 18.000,2.000 18.000,2.000 C18.000,2.000 4.000,2.000 4.000,2.000 C4.000,2.000 4.000,-0.000 4.000,-0.000 ZM-0.000,8.000 C-0.000,8.000 2.000,8.000 2.000,8.000 C2.000,8.000 2.000,10.000 2.000,10.000 C2.000,10.000 -0.000,10.000 -0.000,10.000 C-0.000,10.000 -0.000,8.000 -0.000,8.000 ZM-0.000,4.000 C-0.000,4.000 2.000,4.000 2.000,4.000 C2.000,4.000 2.000,6.000 2.000,6.000 C2.000,6.000 -0.000,6.000 -0.000,6.000 C-0.000,6.000 -0.000,4.000 -0.000,4.000 ZM-0.000,-0.000 C-0.000,-0.000 2.000,-0.000 2.000,-0.000 C2.000,-0.000 2.000,2.000 2.000,2.000 C2.000,2.000 -0.000,2.000 -0.000,2.000 C-0.000,2.000 -0.000,-0.000 -0.000,-0.000 ZM15.000,6.000 C15.000,6.000 4.000,6.000 4.000,6.000 C4.000,6.000 4.000,4.000 4.000,4.000 C4.000,4.000 15.000,4.000 15.000,4.000 C15.000,4.000 15.000,6.000 15.000,6.000 Z"/>
</svg>
