<svg xmlns="http://www.w3.org/2000/svg" xmlns:xlink="http://www.w3.org/1999/xlink" preserveAspectRatio="xMidYMid" width="30" height="25" viewBox="0 0 60 50">
  <path fill="#ffffff" d="M53.9,11.8l5.5-5.5l-6.2,1.4l4.9-6.6l-7.5,3.3C48.5,1.7,45.2,0,41.5,0C35,0,29.7,5.3,29.7,11.8 c0,1.1,0.2,2.2,0.5,3.2c-10-1.1-18.9-5.8-25.5-12.8C4.1,3.9,3.7,5.8,3.7,7.7c0,4.5,2,8.5,5.2,11.3c-1.8-0.5-3.6-1.1-5.3-1.8 c0,1.6,0.4,3.2,1,4.7c1.9,4.5,6.1,7.3,10.6,7.8c-2.5,0.4-5,0.4-7.4,0.2c0.4,1.2,1.1,2.4,2,3.5c3.2,3.7,8.3,4.7,12.6,2.8 c-5.5,4.1-12.4,6.6-19.8,6.6c-0.8,0-1.6,0-2.5-0.1c5.5,3.7,12.2,5.9,19.4,5.9c19.1,0,34.7-15.5,34.7-34.7 C54.1,13.1,54,12.4,53.9,11.8L53.9,11.8z"/>
</svg>